<svg id="visual" viewBox="0 0 900 600" width="900" height="600" xmlns="http://www.w3.org/2000/svg" xmlns:xlink="http://www.w3.org/1999/xlink" version="1.1"><rect x="0" y="0" width="900" height="600" fill="#f3abc8"></rect><g transform="translate(407.7084637332646 297.6076119428632)"><path d="M58.8 -68.2C102.8 -48.9 183.6 -67.4 217.7 -50.1C251.7 -32.8 239 20.4 221.5 71.3C204 122.1 181.6 170.7 143.9 178.4C106.2 186.2 53.1 153.1 -2.8 157C-58.8 160.9 -117.6 201.8 -141.2 189.5C-164.8 177.2 -153.3 111.6 -134.8 67.6C-116.3 23.6 -91 1.1 -89.8 -37.4C-88.6 -76 -111.6 -130.6 -100.7 -160.7C-89.7 -190.8 -44.9 -196.4 -18.8 -170.6C7.3 -144.8 14.7 -87.6 58.8 -68.2" fill="#966277"></path></g></svg>