<svg id="visual" viewBox="0 0 900 600" width="900" height="600" xmlns="http://www.w3.org/2000/svg" xmlns:xlink="http://www.w3.org/1999/xlink" version="1.1"><rect x="0" y="0" width="900" height="600" fill="#f3abc8"></rect><g transform="translate(481.50440483275486 253.5430085010766)"><path d="M90.2 -125.3C121.6 -101.3 154.9 -81.2 171.9 -50.7C188.9 -20.2 189.6 20.8 184.3 67C179.1 113.2 168 164.6 136.3 204.3C104.6 244 52.3 272 -2.7 275.8C-57.8 279.6 -115.6 259.1 -154.9 221.9C-194.2 184.7 -215 130.6 -231.5 76.1C-247.9 21.6 -260 -33.4 -239.2 -71.6C-218.4 -109.9 -164.7 -131.4 -119.4 -150.8C-74.1 -170.3 -37 -187.6 -3.8 -182.4C29.4 -177.1 58.8 -149.2 90.2 -125.3" fill="#966277"></path></g></svg>