<svg id="visual" viewBox="0 0 900 600" width="900" height="600" xmlns="http://www.w3.org/2000/svg" xmlns:xlink="http://www.w3.org/1999/xlink" version="1.1"><rect x="0" y="0" width="900" height="600" fill="#f3abc8"></rect><g transform="translate(467.3377958320385 332.8335221868539)"><path d="M108.6 -161.5C144.8 -123.3 180.8 -96.9 179.3 -66.5C177.8 -36.2 138.9 -1.9 121.7 36C104.6 73.9 109.3 115.4 92.7 141.4C76 167.3 38 177.6 12.6 160.3C-12.7 142.9 -25.5 97.7 -69.9 80.8C-114.2 63.9 -190.3 75.2 -209.1 58.3C-227.9 41.3 -189.6 -3.9 -148.9 -23.4C-108.2 -42.9 -65.1 -36.6 -39.9 -78.4C-14.7 -120.2 -7.3 -210.1 14.4 -230C36.2 -249.9 72.5 -199.8 108.6 -161.5" fill="#966277"></path></g></svg>