<svg id="visual" viewBox="0 0 900 600" width="900" height="600" xmlns="http://www.w3.org/2000/svg" xmlns:xlink="http://www.w3.org/1999/xlink" version="1.1"><rect x="0" y="0" width="900" height="600" fill="#f3abc8"></rect><g transform="translate(520.8146095911669 321.6333933488843)"><path d="M29.5 -74C35.4 -36.2 35.5 -23.9 54.4 -7.8C73.2 8.3 110.8 28.3 112.6 40.9C114.4 53.4 80.4 58.7 55.7 86.1C31 113.6 15.5 163.3 -9.3 176.1C-34.1 188.9 -68.2 164.8 -103.7 140.9C-139.2 116.9 -176.1 93.1 -206.6 54.2C-237.1 15.2 -261.2 -38.7 -252.5 -87.1C-243.7 -135.4 -202.1 -178.1 -154.5 -202.4C-107 -226.6 -53.5 -232.3 -20.9 -203.6C11.8 -174.8 23.5 -111.7 29.5 -74" fill="#966277"></path></g></svg>