<svg id="visual" viewBox="0 0 900 600" width="900" height="600" xmlns="http://www.w3.org/2000/svg" xmlns:xlink="http://www.w3.org/1999/xlink" version="1.1"><rect x="0" y="0" width="900" height="600" fill="#f3abc8"></rect><g transform="translate(444.5157753863533 325.5440716417542)"><path d="M91.4 -110.5C111.8 -110.9 117.3 -75.4 140.1 -37.8C162.9 -0.2 203.2 39.5 200.4 70.4C197.6 101.3 151.7 123.5 111.1 119.1C70.5 114.7 35.3 83.9 7.2 73.9C-20.8 63.9 -41.5 74.8 -84.3 79.9C-127.1 85 -192 84.2 -189.5 67.3C-187 50.5 -117.3 17.5 -103.9 -36.8C-90.5 -91.2 -133.4 -167 -125.5 -170.6C-117.6 -174.3 -58.8 -105.9 -11.7 -89.9C35.5 -73.8 70.9 -110.1 91.4 -110.5" fill="#966277"></path></g></svg>