<svg id="visual" viewBox="0 0 900 600" width="900" height="600" xmlns="http://www.w3.org/2000/svg" xmlns:xlink="http://www.w3.org/1999/xlink" version="1.1"><rect x="0" y="0" width="900" height="600" fill="#f3abc8"></rect><g transform="translate(463.3169109517172 332.8955933294436)"><path d="M141.3 -213.4C165.1 -177.3 153.9 -111.8 160.3 -59.7C166.8 -7.6 190.8 31.1 187.8 67.4C184.8 103.7 154.7 137.6 118.9 154.1C83.1 170.7 41.5 169.8 -3.4 174.6C-48.4 179.3 -96.8 189.6 -124.2 170.3C-151.6 151 -158.1 102.2 -176.2 55.2C-194.3 8.1 -224.1 -37.2 -211.8 -66.9C-199.5 -96.5 -145 -110.6 -102.7 -140.6C-60.3 -170.7 -30.2 -216.9 14.3 -236.5C58.8 -256.2 117.6 -249.5 141.3 -213.4" fill="#966277"></path></g></svg>